<svg width="44" height="36" viewBox="0 0 44 36" fill="none" xmlns="http://www.w3.org/2000/svg">
<path d="M43.2165 8.89089V14.5858C43.051 16.5677 41.5097 17.9984 39.5447 17.9993C34.7847 18.0004 30.0242 18.0007 25.2631 18.0001C25.2349 18.0001 25.2206 17.9858 25.22 17.9571C25.2031 17.0547 25.3449 16.2065 24.1092 16.2065C22.4076 16.2059 20.7056 16.2062 19.0034 16.2073C17.9365 16.2081 17.95 17.1408 18.0125 17.9326C18.0132 17.9413 18.0121 17.9501 18.0093 17.9584C18.0064 17.9667 18.002 17.9743 17.9961 17.9807C17.9902 17.9871 17.9831 17.9922 17.9752 17.9957C17.9672 17.9992 17.9587 18.001 17.95 18.0009C13.3763 17.9993 8.79522 17.9995 4.20685 18.0018C3.56873 18.0018 3.08846 17.9624 2.76602 17.8836C1.15722 17.492 0.194136 16.2655 0 14.5757V8.81661C0.137584 7.21372 1.18508 5.87249 2.76349 5.49687C3.0229 5.43498 3.3957 5.40403 3.88188 5.40403C6.76017 5.40177 9.64352 5.40149 12.5319 5.40318C12.5408 5.40318 12.5495 5.40143 12.5576 5.39803C12.5658 5.39462 12.5732 5.38964 12.5794 5.38335C12.5856 5.37707 12.5905 5.36962 12.5938 5.36143C12.5971 5.35325 12.5987 5.34448 12.5986 5.33566C12.5969 4.81515 12.5966 4.28169 12.5978 3.7353C12.6011 2.03703 13.6351 0.543019 15.2937 0.113387C15.5813 0.0391087 16.0134 0.00168804 16.5902 0.00112532C19.8337 -1.04945e-07 23.0775 -0.00028132 26.3215 0.000281394C27.1059 0.000281394 27.6599 0.0436105 27.9835 0.130268C29.5408 0.546396 30.5807 1.99482 30.6069 3.59349C30.6164 4.17984 30.6187 4.76703 30.6136 5.35507C30.6136 5.38602 30.6291 5.40149 30.66 5.40149C33.4168 5.40262 36.1716 5.4029 38.9244 5.40234C39.7043 5.40178 40.2546 5.44482 40.5754 5.53148C42.0938 5.93917 43.1354 7.31163 43.2165 8.89089ZM27.0103 3.63738C27.0103 3.62418 27.005 3.61151 26.9957 3.60217C26.9864 3.59283 26.9737 3.58758 26.9605 3.58758H16.256C16.2428 3.58758 16.2301 3.59283 16.2208 3.60217C16.2114 3.61151 16.2062 3.62418 16.2062 3.63738V5.35254C16.2062 5.35908 16.2075 5.36555 16.21 5.3716C16.2125 5.37764 16.2161 5.38313 16.2208 5.38775C16.2254 5.39238 16.2309 5.39604 16.2369 5.39855C16.243 5.40105 16.2494 5.40234 16.256 5.40234H26.9605C26.967 5.40234 26.9735 5.40105 26.9795 5.39855C26.9856 5.39604 26.9911 5.39238 26.9957 5.38775C27.0003 5.38313 27.004 5.37764 27.0065 5.3716C27.009 5.36555 27.0103 5.35908 27.0103 5.35254V3.63738Z" fill="#F5A020"/>
<path d="M43.2165 19.6942V32.5646C43.1109 34.1303 42.0677 35.4724 40.5593 35.8742C40.2459 35.958 39.7344 36 39.0248 36C27.3412 36.0005 15.6572 36.0002 3.97304 35.9991C3.41764 35.9991 2.99814 35.9631 2.71453 35.8911C1.16988 35.4994 0.137584 34.1784 0 32.5967V19.6638C0.110855 19.2046 0.376737 18.9469 0.797647 18.8906C1.1893 18.8383 1.41635 19.0485 1.7371 19.2595C2.36846 19.6756 3.05132 19.7929 3.87429 19.7929C8.56845 19.7941 13.2595 19.7943 17.9475 19.7938C17.955 19.7938 17.9624 19.7953 17.9693 19.7981C17.9762 19.801 17.9825 19.8051 17.9878 19.8104C17.993 19.8157 17.9972 19.8219 18 19.8288C18.0028 19.8356 18.0042 19.843 18.004 19.8503C17.9984 20.5864 17.9973 21.3269 18.0007 22.0719C18.0057 23.0029 18.2066 23.403 19.1697 23.4022C20.855 23.4016 22.5401 23.4019 24.2248 23.403C25.0934 23.4039 25.2141 22.797 25.2158 22.0415C25.2175 21.3072 25.2175 20.574 25.2158 19.8419C25.2158 19.8291 25.2209 19.8169 25.2301 19.8079C25.2393 19.7989 25.2518 19.7938 25.2647 19.7938C29.9477 19.7943 34.6373 19.7941 39.3337 19.7929C40.3677 19.7921 41.0109 19.6056 41.8161 19.0265C42.3901 18.6146 43.0949 19.0476 43.2165 19.6942Z" fill="#F5A020"/>
</svg>
