<svg width="46" height="37" viewBox="0 0 46 37" fill="none" xmlns="http://www.w3.org/2000/svg">
<path d="M20.1804 0.744889C21.8447 -0.22121 23.1917 -0.262277 24.8631 0.707929C31.3051 4.44707 37.7458 8.18929 44.1851 11.9346C44.8432 12.3175 45.2723 12.7303 45.0557 13.5054C44.9243 13.9787 44.5485 14.1779 44.0516 14.4664C37.5788 18.2288 31.1052 21.9905 24.6311 25.7515C23.2635 26.5455 21.8738 26.5342 20.4617 25.7177C13.8157 21.8724 7.17215 18.0217 0.530945 14.1656C-0.0378319 13.836 -0.15282 12.9951 0.201382 12.4798C0.300627 12.3353 0.4933 12.18 0.779399 12.0136C7.2447 8.25465 13.7117 4.4984 20.1804 0.744889Z" fill="#F5A020"/>
<path d="M44.2123 33.9801C43.0224 34.4226 41.5214 33.7943 40.9804 32.5756C40.4588 31.4011 40.8438 30.129 41.8592 29.3467C41.8717 29.3371 41.8818 29.3248 41.8887 29.3107C41.8957 29.2967 41.8993 29.2812 41.8993 29.2656V18.6077C41.8993 18.5878 41.9045 18.5682 41.9145 18.5511C41.9244 18.534 41.9386 18.5198 41.9557 18.5102L44.8222 16.8408C44.8252 16.839 44.8287 16.8379 44.8322 16.8379C44.8358 16.8378 44.8393 16.8388 44.8423 16.8406C44.8454 16.8424 44.8479 16.845 44.8496 16.8481C44.8513 16.8512 44.8521 16.8547 44.852 16.8583L44.8509 29.2687C44.8509 29.307 44.866 29.3375 44.8961 29.3601C46.6589 30.6927 46.2226 33.2327 44.2123 33.9801Z" fill="#F5A020"/>
<path d="M9.04803 30.3172C8.01418 29.7176 7.42179 28.3265 7.40741 27.1777C7.38277 25.136 7.37251 23.0949 7.37661 21.0546C7.37667 21.0456 7.37908 21.0368 7.38361 21.029C7.38813 21.0213 7.39462 21.0148 7.40241 21.0104C7.41021 21.0059 7.41904 21.0035 7.42802 21.0036C7.43701 21.0036 7.44583 21.0059 7.45361 21.0104C11.1366 23.1493 14.8217 25.29 18.5088 27.4323C19.3247 27.9059 19.9335 28.2167 20.3353 28.3645C21.8719 28.9271 23.4006 28.9076 24.9214 28.306C25.278 28.165 25.8834 27.8464 26.7376 27.3501C30.3802 25.2352 34.0184 23.1213 37.6522 21.0084C37.6586 21.0045 37.666 21.0025 37.6735 21.0024C37.681 21.0024 37.6884 21.0044 37.6949 21.0081C37.7013 21.0119 37.7067 21.0173 37.7104 21.0239C37.7141 21.0304 37.7159 21.0378 37.7158 21.0453C37.7151 23.0275 37.7155 25.0141 37.7168 27.0052C37.7175 28.1427 37.3489 29.0828 36.6111 29.8254C36.3366 30.102 35.7733 30.4859 34.9212 30.9774C32.7091 32.2546 30.4969 33.531 28.2848 34.8069C27.4662 35.2791 26.8611 35.5995 26.4696 35.7678C23.3362 37.1138 20.1145 36.7586 17.1403 35.0081C14.4545 33.426 11.7441 31.8829 9.04803 30.3172Z" fill="#F5A020"/>
</svg>
